<svg width="30" height="29" viewBox="0 0 30 29" fill="none" xmlns="http://www.w3.org/2000/svg">
<path fill-rule="evenodd" clip-rule="evenodd" d="M17.1552 19.8768L20.4052 16.6268V12.0254L17.1552 8.77539H12.5539L9.28674 12.0254V16.6268L12.5539 19.8768H17.1552Z" fill="#189A8C"/>
<path fill-rule="evenodd" clip-rule="evenodd" d="M17.7369 22.7503H11.9552C11.9552 22.7503 10.9973 22.4082 10.9289 22.3398L6.84073 18.2345C6.70485 18.1004 6.59705 17.9406 6.52362 17.7644C6.4502 17.5882 6.41263 17.3991 6.4131 17.2082V11.4266C6.4131 11.4266 6.75521 10.4687 6.84073 10.4003L10.9289 6.31206C11.063 6.17618 11.2228 6.06838 11.399 5.99495C11.5753 5.92153 11.7643 5.88396 11.9552 5.88443H17.7369C18.7974 5.88443 21.8079 9.01471 22.6974 9.81867C23.1251 10.5029 23.279 10.7424 23.279 11.4266V17.2253C23.2795 17.4162 23.2419 17.6053 23.1685 17.7815C23.0951 17.9577 22.9873 18.1175 22.8514 18.2516L18.7632 22.3227C18.6291 22.4586 18.4693 22.5664 18.2931 22.6398C18.1168 22.7132 17.9278 22.7508 17.7369 22.7503ZM14.8289 0.342285C14.1215 0.936904 13.3599 1.46378 12.5539 1.91598C11.9039 2.2923 11.271 2.68572 10.7408 3.14757C10.4702 3.39499 10.1153 3.52962 9.74865 3.52389C9.06443 3.5752 8.38022 3.74626 7.696 3.93442C6.84073 4.15679 5.98546 4.37916 4.95914 4.44758C4.90782 5.45679 4.66835 6.32917 4.44598 7.16733C4.27493 7.88576 4.08677 8.60419 4.05256 9.32261C4.17229 9.49367 3.74466 10.1608 3.59071 10.3147C3.15881 10.8498 2.77528 11.4223 2.44465 12.0253C1.99923 12.8367 1.47805 13.6041 0.888062 14.3174C1.53807 15.0871 1.99991 15.8569 2.42754 16.6095C2.78179 17.2543 3.20014 17.8618 3.67624 18.4227C3.83018 18.3371 4.05256 19.3122 4.05256 19.4148C4.10387 20.099 4.27492 20.7832 4.46308 21.4845C4.66835 22.3398 4.90783 23.1951 4.97625 24.2043C5.96836 24.2727 6.84074 24.4951 7.6789 24.7175C8.41443 24.8885 9.13285 25.0938 9.85128 25.128C10.0223 25.0082 10.6894 25.4188 10.8263 25.5727C11.3395 26.0175 11.9552 26.3767 12.5539 26.7359C13.3237 27.1806 14.0934 27.6254 14.8461 28.2754C15.6158 27.6254 16.3855 27.1806 17.1382 26.7359C17.7822 26.3871 18.3897 25.9745 18.9513 25.5043C18.8487 25.3332 19.8408 25.128 19.9435 25.128C20.6277 25.0767 21.3119 24.8885 21.9961 24.7175C22.8514 24.4951 23.7066 24.2727 24.733 24.2043C24.8014 23.1951 25.0238 22.3227 25.2461 21.4845C25.4172 20.7661 25.6053 20.0477 25.6567 19.3293C25.5198 19.1582 25.9474 18.474 26.1014 18.3371C26.5391 17.8026 26.9284 17.2302 27.2646 16.6266C27.7777 15.7371 28.2909 14.8648 29.1119 13.9924C28.948 13.8356 28.7991 13.6638 28.6672 13.4792C27.8204 12.3662 26.9362 11.2822 26.0159 10.2292C25.7684 9.95862 25.6338 9.60369 25.6395 9.23708C25.5882 8.55287 25.4172 7.86865 25.2461 7.16733C25.0238 6.31206 24.8014 5.45679 24.733 4.44758C23.7066 4.37916 22.8514 4.15679 21.9961 3.93442C21.2933 3.72541 20.5712 3.58787 19.8408 3.52389C19.4706 3.50692 19.1213 3.34758 18.8658 3.07915C18.3527 2.63441 17.754 2.27519 17.1382 1.91598C16.3267 1.47065 15.5592 0.949455 14.8461 0.359389L14.8289 0.342285Z" fill="#189A8C"/>
</svg>
